<?xml version="1.0" standalone="no"?>
<!DOCTYPE svg PUBLIC "-//W3C//DTD SVG 20010904//EN"
 "http://www.w3.org/TR/2001/REC-SVG-20010904/DTD/svg10.dtd">
<svg version="1.0" xmlns="http://www.w3.org/2000/svg"
 width="512.000000pt" height="512.000000pt" viewBox="0 0 512.000000 512.000000"
 preserveAspectRatio="xMidYMid meet">

<g transform="translate(0.000000,512.000000) scale(0.100000,-0.100000)"
fill="#000000" stroke="none">
<path d="M3315 4829 c-565 -81 -968 -591 -914 -1155 27 -294 180 -570 411
-744 373 -282 872 -293 1255 -28 475 328 597 990 271 1471 -222 327 -636 512
-1023 456z m340 -128 c414 -85 718 -438 751 -871 13 -175 -38 -383 -132 -543
-63 -106 -221 -266 -319 -323 -66 -38 -172 -85 -222 -99 l-23 -6 0 258 0 258
45 24 c60 32 144 114 189 183 118 185 122 428 11 613 -41 68 -79 111 -148 166
-41 33 -56 39 -96 39 -26 0 -56 -7 -69 -16 -45 -31 -52 -62 -52 -229 0 -177
-9 -213 -62 -245 -64 -39 -151 -19 -188 43 -18 28 -20 51 -20 190 0 177 -10
216 -61 242 -73 38 -135 11 -239 -101 -228 -248 -187 -654 86 -852 l64 -47 0
-257 c0 -142 -2 -258 -6 -258 -21 0 -160 69 -227 113 -439 287 -559 885 -264
1322 139 206 382 365 619 404 95 16 266 12 363 -8z m-432 -776 c69 -155 266
-200 394 -90 73 62 86 105 93 295 l5 165 61 -61 c161 -158 191 -401 74 -584
-43 -66 -128 -143 -194 -174 -29 -14 -56 -33 -60 -42 -3 -8 -6 -147 -6 -308
l0 -293 -67 -6 c-63 -6 -130 -3 -210 9 l-33 5 0 249 c0 138 3 250 6 250 3 0
25 -5 50 -11 l44 -11 0 -86 c0 -113 29 -148 88 -106 21 14 22 23 22 129 0 147
-8 158 -129 186 -47 11 -107 32 -134 46 -75 41 -152 124 -194 210 -33 67 -38
85 -41 170 -7 161 42 283 154 382 l49 43 5 -163 c5 -126 10 -173 23 -204z"/>
<path d="M3402 3004 c-32 -22 -30 -69 4 -91 24 -15 29 -15 53 -2 32 18 40 63
15 90 -21 23 -42 24 -72 3z"/>
<path d="M895 4386 c-115 -28 -208 -104 -262 -215 l-28 -56 0 -1775 0 -1775
29 -60 c56 -112 159 -191 281 -215 44 -8 393 -10 1270 -8 l1210 3 60 24 c83
33 183 133 216 216 l24 60 -4 950 c-3 1038 -1 995 -60 995 -59 0 -56 51 -56
-990 l0 -956 -30 -49 c-36 -58 -101 -110 -154 -125 -26 -7 -440 -9 -1263 -8
-1162 3 -1225 4 -1260 21 -52 26 -107 83 -132 136 l-21 46 -3 1448 -2 1447
678 0 c745 0 722 -2 722 59 0 64 33 61 -719 61 l-682 0 3 228 c3 256 10 284
82 354 78 76 49 72 644 78 l534 5 19 24 c24 29 24 32 -2 65 l-20 26 -512 -1
c-365 0 -526 -4 -562 -13z"/>
<path d="M1130 3980 c-11 -11 -20 -29 -20 -40 0 -11 9 -29 20 -40 17 -17 33
-20 108 -20 101 0 132 14 132 59 0 49 -25 61 -128 61 -79 0 -95 -3 -112 -20z"/>
<path d="M1610 3980 c-11 -11 -20 -29 -20 -40 0 -11 9 -29 20 -40 17 -17 33
-20 108 -20 102 0 132 14 132 60 0 46 -30 60 -132 60 -75 0 -91 -3 -108 -20z"/>
<path d="M2040 2615 c-236 -53 -437 -195 -558 -396 -85 -141 -124 -282 -123
-452 1 -239 91 -449 262 -613 113 -107 235 -175 384 -215 112 -30 307 -30 417
-1 292 79 513 285 608 570 29 84 34 114 38 229 4 112 1 147 -17 227 -43 185
-158 367 -302 480 -81 64 -222 136 -314 161 -85 23 -310 29 -395 10z m356
-120 c33 -8 101 -36 153 -61 260 -128 427 -416 408 -704 -8 -110 -28 -186 -76
-285 -126 -255 -385 -415 -673 -415 -269 0 -532 162 -651 400 -57 114 -76 185
-84 305 -17 259 115 517 337 660 96 62 186 95 330 119 43 8 196 -4 256 -19z"/>
<path d="M2105 2340 c-173 -35 -335 -163 -411 -325 -130 -277 -6 -627 268
-759 95 -46 153 -58 263 -58 119 0 225 33 321 101 153 107 171 157 108 301
-26 59 -29 75 -29 175 0 101 3 116 33 185 18 43 32 92 32 114 0 37 -7 47 -73
111 -135 133 -329 192 -512 155z m264 -132 c66 -22 134 -65 179 -111 l34 -35
-20 -39 c-75 -147 -76 -359 -1 -505 l19 -38 -45 -44 c-203 -194 -543 -157
-698 77 -34 51 -83 174 -73 184 2 3 24 -8 48 -25 133 -91 217 -89 370 10 51
32 67 63 49 97 -20 37 -55 37 -113 -2 -65 -42 -121 -61 -158 -53 -16 3 -59 26
-96 51 -37 25 -76 45 -87 45 -17 0 -19 5 -13 43 12 76 69 178 135 240 128 123
304 162 470 105z"/>
<path d="M2334 1832 c-23 -15 -35 -51 -24 -72 31 -58 110 -39 110 26 0 35 -57
66 -86 46z"/>
<path d="M3060 695 c-7 -8 -12 -26 -12 -40 0 -50 13 -55 158 -55 146 0 164 7
164 59 0 47 -13 51 -161 51 -109 0 -139 -3 -149 -15z"/>
</g>
</svg>
