<?xml version="1.0" standalone="no"?>
<!DOCTYPE svg PUBLIC "-//W3C//DTD SVG 20010904//EN"
 "http://www.w3.org/TR/2001/REC-SVG-20010904/DTD/svg10.dtd">
<svg version="1.0" xmlns="http://www.w3.org/2000/svg"
 width="512.000000pt" height="512.000000pt" viewBox="0 0 512.000000 512.000000"
 preserveAspectRatio="xMidYMid meet">

<g transform="translate(0.000000,512.000000) scale(0.100000,-0.100000)"
fill="#000000" stroke="none">
<path d="M1065 5029 c-340 -63 -594 -320 -654 -663 -44 -247 47 -515 237 -698
l70 -68 -215 0 c-140 0 -230 -4 -257 -12 -55 -16 -138 -99 -154 -154 -16 -56
-16 -412 0 -468 24 -80 135 -166 217 -166 11 0 21 -2 21 -5 0 -21 282 -2394
287 -2414 9 -39 52 -122 83 -160 43 -51 117 -99 188 -121 63 -20 99 -20 1671
-20 1698 0 1652 -1 1741 45 85 44 156 123 190 213 13 33 64 412 164 1223 80
646 148 1188 151 1206 5 26 11 33 38 38 83 18 163 89 185 164 16 52 16 411 0
463 -6 22 -31 62 -55 88 -58 65 -105 80 -245 80 l-108 0 25 39 c115 173 91
404 -58 553 l-48 48 50 50 c97 97 146 246 124 376 -30 176 -156 314 -328 360
-41 11 -345 14 -1660 13 -936 -1 -1631 -5 -1660 -10z m3305 -165 c74 -22 152
-100 174 -174 34 -113 11 -206 -68 -286 -91 -91 21 -84 -1453 -84 l-1294 0
-24 -25 c-16 -15 -25 -36 -25 -55 0 -19 9 -40 25 -55 l24 -25 1294 0 c1474 0
1362 7 1453 -84 113 -114 113 -278 -1 -392 -92 -92 63 -85 -1781 -82 l-1619 3
-65 22 c-318 109 -502 426 -435 748 48 233 254 440 485 490 54 11 340 14 1661
14 1428 1 1601 -1 1649 -15z m-2530 -1664 l0 -240 -775 0 -776 0 -24 25 c-25
24 -25 26 -25 215 0 189 0 191 25 215 l24 25 776 0 775 0 0 -240z m2240 -600
l0 -840 -1040 0 -1040 0 0 840 0 840 1040 0 1040 0 0 -840z m775 815 c25 -24
25 -26 25 -215 0 -189 0 -191 -25 -215 l-24 -25 -296 0 -295 0 0 240 0 240
295 0 296 0 24 -25z m-3013 -1423 l3 -808 38 -76 37 -76 0 -132 c0 -166 10
-200 75 -265 102 -103 243 -101 338 5 49 55 67 103 67 184 l0 56 160 0 160 0
0 -56 c0 -87 18 -133 75 -189 102 -103 243 -101 338 5 49 55 67 103 67 184 l0
56 160 0 160 0 0 -56 c0 -87 18 -133 75 -189 102 -103 243 -101 338 5 52 58
67 103 67 201 l0 74 45 24 c62 33 121 99 158 179 l32 67 3 808 3 807 204 0
204 0 -5 -32 c-3 -18 -70 -556 -149 -1196 -157 -1256 -148 -1208 -218 -1269
-78 -68 51 -64 -1732 -61 l-1610 3 -41 22 c-47 25 -91 73 -110 120 -8 18 -74
549 -149 1180 -74 631 -137 1167 -140 1191 l-6 42 675 0 675 0 3 -808z m2238
-472 l0 -80 -1040 0 -1040 0 0 80 0 80 1040 0 1040 0 0 -80z m0 -256 c0 -77
-88 -189 -166 -212 -59 -17 -1689 -17 -1748 0 -78 23 -166 135 -166 212 0 15
84 16 1040 16 956 0 1040 -1 1040 -16z m-1902 -377 l62 -11 0 -53 c0 -44 -5
-59 -25 -78 -32 -33 -78 -33 -110 0 -22 21 -25 33 -25 96 0 64 2 70 18 64 9
-4 45 -12 80 -18z m862 -62 c0 -67 -29 -105 -80 -105 -51 0 -80 38 -80 105 l0
55 80 0 80 0 0 -55z m800 0 c0 -67 -29 -105 -80 -105 -51 0 -80 38 -80 105 l0
55 80 0 80 0 0 -55z"/>
<path d="M1280 2467 c-49 -16 -133 -102 -148 -153 -16 -56 -16 -412 0 -468 16
-55 99 -138 154 -154 96 -28 182 -4 247 68 24 26 49 66 55 88 16 53 16 411 0
464 -17 59 -88 133 -145 152 -53 18 -112 19 -163 3z m135 -172 c25 -24 25 -26
25 -215 0 -189 0 -191 -25 -215 -15 -16 -36 -25 -55 -25 -19 0 -40 9 -55 25
-25 24 -25 26 -25 215 0 189 0 191 25 215 15 16 36 25 55 25 19 0 40 -9 55
-25z"/>
<path d="M1280 1347 c-49 -16 -133 -102 -148 -153 -16 -56 -16 -412 0 -468 16
-55 99 -138 154 -154 96 -28 182 -4 247 68 24 26 49 66 55 88 16 53 16 411 0
464 -17 59 -88 133 -145 152 -53 18 -112 19 -163 3z m135 -172 c25 -24 25 -26
25 -215 0 -189 0 -191 -25 -215 -15 -16 -36 -25 -55 -25 -19 0 -40 9 -55 25
-25 24 -25 26 -25 215 0 189 0 191 25 215 15 16 36 25 55 25 19 0 40 -9 55
-25z"/>
</g>
</svg>
