<?xml version="1.0" standalone="no"?>
<!DOCTYPE svg PUBLIC "-//W3C//DTD SVG 20010904//EN"
 "http://www.w3.org/TR/2001/REC-SVG-20010904/DTD/svg10.dtd">
<svg version="1.0" xmlns="http://www.w3.org/2000/svg"
 width="512.000000pt" height="512.000000pt" viewBox="0 0 512.000000 512.000000"
 preserveAspectRatio="xMidYMid meet">

<g transform="translate(0.000000,512.000000) scale(0.100000,-0.100000)"
fill="#000000" stroke="none">
<path d="M885 4791 c-90 -22 -172 -90 -215 -176 l-25 -50 0 -1032 c0 -1026 0
-1032 21 -1059 39 -53 71 -69 134 -69 63 0 95 16 134 69 20 27 21 40 24 537
l3 509 1598 0 1599 0 4 -109 c2 -92 6 -114 24 -137 39 -53 71 -69 134 -69 63
0 95 16 134 69 21 27 21 37 21 659 l0 632 -27 51 c-40 76 -70 107 -140 145
l-63 34 -1665 2 c-916 0 -1678 -2 -1695 -6z m1035 -631 l0 -320 -480 0 -480 0
0 320 0 320 480 0 480 0 0 -320z m2240 0 l0 -320 -960 0 -960 0 0 320 0 320
960 0 960 0 0 -320z"/>
<path d="M1375 4306 c-101 -44 -125 -178 -46 -257 112 -113 296 -12 267 146
-18 94 -131 151 -221 111z"/>
<path d="M2655 4306 c-97 -43 -124 -171 -54 -251 45 -51 78 -57 301 -53 215 3
223 5 272 72 29 39 29 133 0 172 -50 67 -55 69 -282 71 -157 2 -214 0 -237
-11z"/>
<path d="M3615 4306 c-101 -44 -125 -178 -46 -257 112 -113 296 -12 267 146
-18 94 -131 151 -221 111z"/>
<path d="M2375 3184 c-124 -23 -206 -50 -323 -109 -135 -68 -254 -161 -276
-216 -22 -54 -20 -88 7 -139 31 -59 76 -82 149 -78 43 3 64 11 90 31 175 144
328 202 538 202 226 0 408 -75 564 -231 156 -156 231 -338 231 -564 0 -226
-75 -408 -231 -564 -156 -156 -338 -231 -564 -231 -209 0 -363 58 -538 201
-43 36 -123 44 -176 19 -74 -35 -107 -139 -67 -214 41 -78 265 -220 433 -275
227 -74 476 -72 708 4 177 59 376 195 490 335 46 56 60 66 60 41 0 -8 25 -63
54 -123 70 -140 149 -228 244 -275 59 -29 76 -33 152 -33 103 0 171 28 250
101 259 242 376 868 269 1439 -64 341 -200 580 -377 663 -48 23 -71 27 -142
27 -71 0 -94 -4 -142 -27 -64 -30 -132 -89 -183 -157 -37 -52 -110 -192 -120
-234 -4 -15 -10 -27 -14 -27 -3 0 -26 25 -51 55 -236 290 -662 446 -1035 379z
m1595 -341 c67 -75 133 -256 167 -453 23 -132 23 -488 0 -620 -34 -197 -100
-378 -167 -453 -17 -20 -40 -37 -50 -37 -44 0 -118 122 -168 280 -50 157 -66
287 -66 520 0 233 16 363 66 520 50 158 124 280 168 280 10 0 33 -17 50 -37z"/>
<path d="M1375 2706 c-41 -18 -83 -69 -91 -111 -14 -77 0 -102 129 -232 l120
-123 -556 -2 c-543 -3 -556 -3 -583 -24 -53 -39 -69 -71 -69 -134 0 -63 16
-95 69 -134 27 -21 40 -21 583 -24 l556 -2 -120 -123 c-130 -131 -143 -155
-128 -234 9 -49 69 -109 118 -118 88 -17 90 -16 389 283 239 239 278 282 283
315 16 88 15 91 -273 381 -147 147 -281 274 -299 282 -40 17 -89 17 -128 0z"/>
<path d="M735 1746 c-41 -18 -83 -69 -90 -109 -3 -18 -5 -268 -3 -557 l3 -525
34 -63 c38 -70 69 -100 145 -140 l51 -27 1685 0 1685 0 51 27 c76 40 107 70
145 140 l34 63 0 152 c0 166 -4 179 -69 227 -39 29 -133 29 -172 0 -60 -44
-69 -67 -72 -185 l-4 -109 -1599 0 -1598 0 -3 509 c-3 497 -4 510 -24 537 -11
15 -32 37 -46 47 -33 25 -113 32 -153 13z"/>
</g>
</svg>
