<?xml version="1.0" standalone="no"?>
<!DOCTYPE svg PUBLIC "-//W3C//DTD SVG 20010904//EN"
 "http://www.w3.org/TR/2001/REC-SVG-20010904/DTD/svg10.dtd">
<svg version="1.0" xmlns="http://www.w3.org/2000/svg"
 width="512.000000pt" height="512.000000pt" viewBox="0 0 512.000000 512.000000"
 preserveAspectRatio="xMidYMid meet">

<g transform="translate(0.000000,512.000000) scale(0.100000,-0.100000)"
fill="#000000" stroke="none">
<path d="M877 4876 c-87 -32 -150 -92 -184 -177 -17 -42 -18 -158 -18 -2134 0
-2025 1 -2092 19 -2144 25 -73 93 -141 169 -170 l58 -21 1639 0 1639 0 58 22
c75 27 144 98 170 170 17 51 18 140 18 2138 0 2020 -1 2087 -19 2139 -25 73
-93 141 -169 170 l-58 21 -1642 0 c-1355 -1 -1649 -3 -1680 -14z m3340 -166
c67 -40 68 -45 71 -347 l3 -273 -1731 0 -1731 0 3 273 c3 302 4 307 71 347 31
20 64 20 1657 20 1593 0 1626 0 1657 -20z m68 -2505 c0 -1642 -1 -1722 -18
-1748 -10 -16 -32 -37 -50 -47 -31 -20 -64 -20 -1657 -20 -1593 0 -1626 0
-1657 20 -18 10 -40 31 -50 47 -17 26 -18 108 -21 1737 -1 941 0 1717 3 1723
3 11 348 13 1727 11 l1723 -3 0 -1720z"/>
<path d="M1124 4621 c-28 -12 -54 -49 -54 -77 0 -12 9 -33 21 -48 l20 -26 159
0 c87 0 166 3 175 6 23 9 46 60 39 88 -13 54 -34 61 -193 63 -80 2 -156 -1
-167 -6z"/>
<path d="M1644 4624 c-57 -13 -79 -99 -35 -135 21 -17 42 -19 186 -19 l164 0
20 26 c28 35 26 67 -3 101 l-24 28 -144 2 c-78 0 -153 -1 -164 -3z"/>
<path d="M2144 4616 c-48 -22 -61 -89 -24 -126 18 -18 33 -20 184 -20 l165 0
20 26 c29 36 27 75 -5 105 -24 23 -33 24 -167 26 -104 2 -150 -1 -173 -11z"/>
<path d="M2724 4616 c-17 -8 -34 -21 -38 -31 -3 -9 -6 -90 -6 -180 0 -229 -28
-209 298 -213 l260 -3 28 25 29 24 0 171 c0 234 26 215 -293 218 -193 2 -254
0 -278 -11z m414 -208 l3 -58 -151 0 -150 0 0 60 0 61 148 -3 147 -3 3 -57z"/>
<path d="M3490 4623 c-8 -3 -25 -15 -37 -26 -22 -20 -23 -27 -23 -183 0 -89 3
-170 6 -179 16 -40 52 -45 309 -45 l247 0 29 29 29 29 0 161 c0 155 -1 161
-24 188 l-24 28 -249 2 c-136 1 -255 -1 -263 -4z m400 -213 l0 -60 -150 0
-150 0 0 60 0 60 150 0 150 0 0 -60z"/>
<path d="M1095 4325 c-27 -26 -31 -51 -14 -88 18 -40 50 -47 202 -47 115 0
147 3 165 16 32 22 44 58 31 91 -18 49 -32 52 -202 53 -155 0 -158 -1 -182
-25z"/>
<path d="M1622 4343 c-21 -8 -43 -61 -36 -88 3 -14 18 -34 31 -45 23 -18 41
-20 175 -20 l150 0 30 30 c25 26 29 36 24 63 -12 61 -30 67 -205 66 -86 0
-162 -3 -169 -6z"/>
<path d="M2122 4327 c-32 -34 -30 -89 4 -116 24 -19 40 -21 171 -21 182 0 213
13 213 86 0 14 -11 36 -25 49 -24 24 -28 25 -183 25 -153 0 -159 -1 -180 -23z"/>
<path d="M2410 3604 c-335 -43 -614 -174 -848 -399 -222 -213 -359 -458 -424
-758 -33 -151 -32 -429 0 -576 131 -584 550 -1005 1130 -1133 131 -30 432 -32
565 -5 581 118 1017 550 1149 1138 32 147 33 425 0 576 -61 280 -182 508 -377
711 -121 126 -235 213 -375 286 -212 110 -389 155 -630 160 -85 3 -171 2 -190
0z m400 -178 c114 -25 225 -64 330 -116 354 -178 601 -503 687 -903 25 -115
25 -380 0 -497 -57 -265 -168 -471 -357 -661 -188 -188 -397 -300 -675 -361
-80 -17 -390 -17 -470 0 -187 41 -375 121 -513 218 -95 68 -258 235 -320 329
-98 147 -161 300 -199 475 -25 117 -25 382 0 497 38 180 108 343 209 490 66
98 210 243 308 312 150 105 361 194 525 220 39 6 81 13 95 15 53 9 309 -3 380
-18z"/>
<path d="M2355 3194 c-216 -48 -390 -142 -539 -290 -125 -126 -204 -255 -262
-429 -33 -100 -36 -123 -41 -257 -11 -285 49 -483 212 -700 256 -340 709 -491
1123 -372 353 101 621 370 728 731 21 71 27 116 31 234 6 160 -3 233 -44 369
-100 334 -387 605 -741 701 -105 28 -365 36 -467 13z m378 -158 c213 -41 439
-187 557 -360 34 -50 31 -65 -12 -66 -35 0 -121 -41 -206 -98 -116 -77 -142
-87 -237 -86 -94 0 -130 14 -251 96 -113 77 -164 93 -299 93 -138 0 -178 -13
-320 -105 -102 -66 -164 -90 -232 -90 -22 0 -24 3 -19 28 4 15 20 55 36 89
115 249 353 438 625 496 90 20 263 21 358 3z m-350 -587 c20 -5 77 -37 127
-70 110 -74 156 -94 244 -110 139 -24 248 4 398 103 105 69 159 91 214 86 37
-3 39 -5 57 -63 14 -42 21 -102 24 -202 l6 -143 -31 0 c-46 0 -150 -36 -217
-75 -33 -19 -94 -52 -135 -72 -67 -34 -84 -38 -171 -41 -121 -5 -174 9 -294
80 -156 92 -214 110 -355 111 -154 0 -212 -18 -395 -126 -44 -25 -94 -49 -111
-53 -30 -6 -31 -5 -48 53 -12 37 -20 107 -23 194 l-5 136 83 6 c112 8 179 31
272 94 84 57 128 82 167 94 37 11 150 10 193 -2z m1 -576 c27 -8 95 -41 150
-74 131 -77 176 -91 317 -96 139 -6 210 9 314 66 38 22 96 53 127 71 32 17 71
35 88 40 29 8 31 7 25 -13 -13 -45 -65 -149 -102 -204 -319 -481 -1011 -533
-1403 -106 -33 36 -73 87 -89 113 l-29 47 41 14 c22 7 81 38 131 67 117 70
146 82 220 91 75 9 146 4 210 -16z"/>
</g>
</svg>
